# xmcd
#
# Track frame offsets: 
#        150
#        20090
#        33987
#        64127
#        83602
#        110550
#        140385
#        172102
#        193642
#        217597
#        244867
#        269570
#
# Disc length: 3777 seconds
#
# Revision: 1
# Processed by: cddbd v1.5.2PL0 Copyright (c) Steve Scherf et al.
# Submitted via: ExactAudioCopy v0.99pb4
#
DISCID=a80ebf0c
DTITLE=Various Artist - Your Quartet Favorites
DYEAR=1997
DGENRE=Southern Gospel
TTITLE0=Troy Ramey and The Soul Searchers - I've Been Picked Out (To Be 
TTITLE0=Picked Upon)
TTITLE1=Dixie Hummingbirds - Smooth Sailing
TTITLE2=Robert Blair and The Fantastic Violinaires - Pink Tornado
TTITLE3=Luther Barnes and The Sunset Jubilaires - Guide Me
TTITLE4=Sister Pope and The Pearly Gates - The Great Reunion
TTITLE5=Maggie Ingram and The Ingramettes - A Tribute To Granny
TTITLE6=Tommy Ellison and The Five Singing Stars - Let This Be A Lesson 
TTITLE6=To You (Drunk Driver)
TTITLE7=The Singing Disciples - Reach Out
TTITLE8=The Christianaires - Ain't No Way I Can Lose
TTITLE9=The Lumzy Sisters - Calling Me
TTITLE10=The Swanee Quintet - Eternal Life
TTITLE11=Doc McKenzie and The Gospel Hi-Lites - All The Way
EXTD=
EXTT0=
EXTT1=
EXTT2=
EXTT3=
EXTT4=
EXTT5=
EXTT6=
EXTT7=
EXTT8=
EXTT9=
EXTT10=
EXTT11=
PLAYORDER=
